<?xml version="1.0" standalone="no"?>
<!DOCTYPE svg PUBLIC "-//W3C//DTD SVG 20010904//EN"
 "http://www.w3.org/TR/2001/REC-SVG-20010904/DTD/svg10.dtd">
<svg version="1.0" xmlns="http://www.w3.org/2000/svg"
 width="2000.000000pt" height="2000.000000pt" viewBox="0 0 2000.000000 2000.000000"
 preserveAspectRatio="xMidYMid meet">
<metadata>
Created by potrace 1.11, written by Peter Selinger 2001-2013
</metadata>
<g transform="translate(0.000000,2000.000000) scale(0.100000,-0.100000)"
fill="#000000" stroke="none">
<path d="M5408 19044 c-2 -1 -58 -5 -125 -9 -68 -3 -131 -8 -140 -9 -10 -2
-49 -7 -88 -10 -38 -4 -81 -9 -95 -11 -49 -7 -108 -16 -146 -20 -22 -3 -46 -8
-55 -10 -9 -3 -34 -7 -55 -10 -22 -2 -61 -9 -89 -15 -27 -7 -61 -14 -75 -16
-89 -17 -217 -49 -355 -89 -88 -26 -167 -48 -175 -50 -51 -12 -393 -144 -500
-192 -181 -82 -420 -206 -548 -283 -37 -23 -76 -46 -87 -53 -367 -222 -806
-586 -1100 -912 -505 -560 -855 -1150 -1091 -1838 -38 -111 -117 -376 -129
-433 -2 -10 -16 -73 -30 -139 -15 -66 -29 -131 -31 -145 -2 -14 -9 -47 -14
-75 -8 -46 -12 -66 -25 -160 -12 -86 -14 -104 -20 -170 -3 -38 -8 -81 -11 -95
-10 -59 -18 -284 -18 -525 1 -381 14 -603 59 -955 3 -19 7 -55 10 -80 3 -25 9
-70 15 -100 5 -30 11 -71 14 -90 4 -28 41 -223 50 -265 1 -5 8 -37 15 -70 23
-117 99 -407 138 -530 13 -44 26 -87 28 -95 10 -42 127 -370 159 -445 7 -16
35 -82 61 -145 307 -730 778 -1470 1395 -2190 24 -28 129 -147 145 -164 6 -6
28 -31 49 -56 171 -196 783 -818 1055 -1070 74 -69 143 -134 155 -145 29 -28
353 -323 396 -361 182 -161 226 -201 240 -214 17 -16 72 -65 295 -261 77 -67
145 -128 151 -133 6 -6 38 -33 70 -61 32 -27 99 -86 149 -130 49 -44 122 -107
160 -140 39 -33 72 -63 75 -66 3 -3 43 -39 90 -80 47 -40 90 -78 96 -84 6 -5
42 -37 80 -71 126 -111 439 -388 450 -399 6 -5 48 -44 94 -85 46 -41 94 -84
105 -95 12 -11 62 -56 111 -100 49 -44 98 -89 110 -100 11 -11 69 -65 129
-120 455 -420 1020 -980 1412 -1400 61 -66 120 -129 130 -141 16 -18 114 -127
193 -214 25 -28 122 -137 150 -170 8 -10 35 -41 59 -70 25 -29 50 -58 56 -64
5 -6 46 -54 89 -106 43 -52 88 -107 101 -121 17 -20 173 -214 333 -413 115
-145 440 -588 595 -813 195 -283 310 -448 311 -450 1 -1 90 129 196 289 250
374 615 896 650 928 3 3 51 67 108 142 57 76 112 148 122 160 11 13 79 97 152
188 73 91 135 167 138 170 3 3 39 46 80 95 41 50 87 104 101 120 14 17 59 68
99 115 72 85 342 387 409 459 20 21 94 100 166 177 169 181 824 836 1034 1034
90 85 179 169 196 185 63 59 261 243 325 301 35 32 94 86 130 119 87 79 269
244 327 295 25 22 141 127 188 169 22 20 119 106 215 191 96 85 177 157 180
160 3 3 59 53 125 110 66 58 125 110 130 116 6 5 46 41 90 80 44 38 82 72 85
75 3 3 30 27 60 54 52 45 164 145 221 196 14 13 43 40 65 59 233 209 333 299
355 320 14 14 62 57 105 97 43 39 97 89 120 110 229 214 369 348 538 513 242
238 197 193 351 352 244 252 377 397 560 608 26 30 59 69 74 85 14 17 61 73
104 125 43 52 86 104 95 115 9 11 33 40 52 65 19 25 37 47 40 50 3 3 17 21 30
40 13 19 30 41 37 48 31 32 285 390 388 546 110 168 230 362 295 481 18 33 42
76 53 95 65 114 252 503 263 545 3 14 10 25 15 25 5 0 9 6 9 14 0 11 26 77 60
151 17 37 108 289 145 400 68 206 160 546 180 665 3 19 10 51 15 70 5 19 11
51 14 70 7 40 13 75 26 145 5 28 11 66 14 85 9 71 19 135 22 154 2 10 6 44 9
75 4 31 8 67 10 81 2 14 7 59 10 100 4 41 8 91 10 110 11 108 19 344 19 550 0
220 -10 485 -18 499 -2 3 -7 42 -10 86 -3 44 -7 89 -10 100 -6 31 -18 117 -21
150 -5 46 -54 295 -70 358 -8 30 -16 66 -19 79 -12 66 -107 391 -126 433 -5
11 -16 40 -24 65 -79 242 -267 643 -426 910 -176 296 -412 615 -634 860 -97
106 -340 343 -451 439 -185 160 -520 407 -660 487 -11 6 -69 41 -130 78 -149
90 -519 272 -690 340 -265 104 -647 221 -840 257 -27 5 -72 14 -100 19 -62 14
-263 46 -330 54 -27 4 -70 9 -94 13 -24 3 -60 7 -80 8 -20 2 -88 6 -151 11
-206 15 -676 9 -835 -11 -17 -2 -59 -6 -95 -9 -36 -4 -76 -9 -90 -11 -14 -2
-45 -7 -70 -10 -44 -6 -191 -30 -240 -40 -14 -3 -41 -8 -60 -11 -27 -5 -182
-41 -340 -79 -141 -34 -477 -152 -675 -236 -500 -213 -967 -504 -1385 -862
-98 -84 -401 -382 -480 -472 -143 -163 -353 -433 -427 -550 -15 -25 -30 -45
-33 -45 -3 0 -31 40 -62 88 -32 48 -66 98 -77 112 -11 14 -50 66 -87 115 -37
50 -70 92 -73 95 -4 3 -51 59 -106 125 -92 110 -368 396 -475 490 -282 250
-600 478 -922 661 -82 47 -392 204 -402 204 -3 0 -31 12 -63 26 -32 14 -71 32
-88 40 -164 73 -635 224 -805 258 -14 2 -68 14 -121 25 -110 23 -318 57 -399
66 -30 3 -66 8 -80 10 -25 4 -108 11 -230 21 -65 5 -578 13 -582 8z m457 -808
c236 -12 508 -47 695 -90 162 -37 227 -54 355 -92 352 -106 676 -251 997 -445
102 -63 309 -203 359 -243 14 -12 41 -32 59 -46 152 -113 440 -384 578 -544
42 -49 84 -97 92 -105 9 -9 29 -35 45 -56 17 -22 32 -42 36 -45 3 -3 32 -41
65 -85 184 -247 350 -529 494 -840 18 -38 54 -116 81 -173 27 -56 49 -104 49
-106 0 -3 24 -55 53 -118 30 -62 71 -151 93 -198 21 -47 45 -95 53 -108 l14
-23 17 38 c10 21 36 79 60 128 23 50 82 176 130 280 152 329 161 347 225 476
82 165 263 465 330 548 8 9 40 52 73 96 51 69 150 191 237 290 92 105 301 307
425 411 517 434 1094 735 1743 909 53 14 105 28 115 30 188 40 298 61 382 70
19 3 44 6 55 8 189 39 744 51 985 22 19 -2 64 -7 100 -10 36 -3 90 -10 120
-15 30 -5 75 -12 100 -15 120 -17 359 -72 530 -122 612 -178 1227 -522 1705
-952 61 -55 308 -303 350 -351 35 -41 151 -178 168 -200 347 -437 620 -961
780 -1500 28 -94 91 -350 103 -420 4 -25 8 -47 9 -50 2 -12 17 -107 21 -133 2
-15 8 -62 13 -105 24 -179 31 -305 30 -572 0 -250 -2 -300 -25 -575 -6 -69
-39 -327 -48 -375 -3 -14 -10 -54 -16 -90 -13 -85 -18 -110 -36 -189 -8 -36
-17 -79 -20 -96 -23 -132 -153 -559 -239 -785 -84 -220 -276 -639 -297 -648
-5 -2 -8 -9 -8 -16 0 -6 -34 -72 -76 -146 -509 -900 -1226 -1743 -2430 -2857
-109 -100 -108 -99 -249 -228 -138 -126 -135 -124 -210 -189 -36 -33 -79 -71
-94 -85 -31 -28 -158 -142 -231 -206 -25 -22 -47 -42 -50 -45 -3 -3 -43 -39
-90 -80 -47 -41 -90 -79 -96 -85 -70 -62 -101 -90 -169 -150 -44 -38 -82 -72
-85 -75 -3 -3 -41 -37 -85 -75 -74 -65 -146 -130 -185 -165 -9 -8 -72 -64
-140 -125 -69 -60 -143 -126 -165 -147 -22 -20 -49 -45 -61 -55 -31 -27 -173
-154 -204 -183 -15 -14 -62 -57 -105 -95 -43 -39 -95 -86 -115 -105 -21 -19
-82 -75 -135 -125 -156 -144 -164 -150 -295 -273 -418 -393 -1164 -1140 -1330
-1332 -12 -14 -61 -68 -110 -120 -48 -52 -105 -115 -127 -139 -21 -25 -51 -59
-68 -77 -28 -30 -57 -63 -174 -198 -24 -28 -55 -64 -70 -81 -14 -16 -62 -73
-106 -125 -44 -52 -86 -102 -94 -110 -43 -45 -431 -538 -589 -749 -101 -135
-187 -247 -191 -249 -3 -1 -15 12 -26 30 -10 18 -21 35 -25 38 -3 3 -19 23
-36 45 -85 116 -438 564 -508 646 -17 19 -40 47 -51 60 -31 38 -119 143 -130
155 -5 6 -32 37 -60 70 -59 69 -204 234 -219 250 -6 6 -33 37 -61 69 -27 32
-61 70 -75 84 -14 15 -68 74 -120 131 -52 58 -106 117 -120 131 -14 14 -81 86
-150 159 -157 167 -705 716 -915 915 -192 183 -184 174 -331 311 -133 125
-147 137 -258 238 -44 39 -93 84 -109 99 -17 16 -62 56 -100 90 -38 34 -79 71
-91 82 -12 11 -60 54 -105 95 -46 41 -89 80 -95 85 -12 11 -149 132 -266 235
-40 36 -83 74 -96 85 -12 11 -48 43 -80 70 -31 28 -62 55 -68 60 -6 6 -45 39
-86 75 -41 36 -80 70 -86 75 -6 6 -42 37 -79 70 -38 33 -76 67 -85 75 -9 8
-47 42 -85 75 -93 80 -123 106 -149 130 -27 24 -150 132 -180 158 -65 57 -142
125 -166 147 -25 23 -152 137 -190 170 -52 46 -254 228 -326 295 -6 5 -60 55
-120 110 -379 349 -817 783 -1077 1069 -217 237 -359 402 -497 576 -41 52 -85
106 -97 120 -13 14 -23 28 -23 32 0 3 -6 13 -14 20 -7 8 -47 61 -89 118 -42
58 -84 116 -95 130 -24 31 -173 252 -228 340 -178 279 -343 587 -484 904 -46
103 -152 381 -186 489 -20 61 -41 126 -47 142 -6 17 -13 35 -14 40 -1 6 -22
84 -46 175 -46 173 -75 292 -83 338 -2 15 -11 59 -18 97 -8 39 -18 88 -21 110
-26 155 -50 324 -60 440 -3 33 -8 76 -10 95 -28 240 -28 961 0 1140 2 14 6 46
9 72 26 219 104 565 180 798 238 729 648 1368 1212 1890 326 302 763 592 1140
758 49 22 109 49 134 60 138 64 534 192 700 227 8 2 38 9 65 15 28 6 61 14 75
16 304 55 399 67 660 79 74 4 136 8 137 9 3 3 192 -2 318 -8z"/>
</g>
</svg>
